<?xml version="1.0" encoding="utf-8"?>
<!-- Generator: Adobe Illustrator 17.1.0, SVG Export Plug-In . SVG Version: 6.00 Build 0)  -->
<!DOCTYPE svg PUBLIC "-//W3C//DTD SVG 1.1//EN" "http://www.w3.org/Graphics/SVG/1.1/DTD/svg11.dtd">
<svg version="1.1" id="Layer_1" xmlns="http://www.w3.org/2000/svg" xmlns:xlink="http://www.w3.org/1999/xlink" x="0px" y="0px"
	 viewBox="0 0 128 128" enable-background="new 0 0 128 128" xml:space="preserve">
<g>
	<path fill="#DC584D" d="M46,93.7c-0.6-6.6,6.8-11.2,11-15.5l-2.9-20.3L58.3,24c0-6.9-0.6-9,6.5-8.4c0.7,0.1,1.6-3.9,2.3-3.7
		c6.6,1.3,27.3,8.4,50.1,16.5C105.6,11.2,86.1,0,64,0C28.7,0,0,28.7,0,64s28.7,64,64,64c7,0,13.8-1.1,20.1-3.2l-21.6-9.4
		C52,114.7,46.9,104.2,46,93.7z"/>
	<path fill="#B64032" d="M128,64c0-13.2-4-25.5-10.9-35.7C94.4,20.2,73.6,13.2,67,11.9c-0.7-0.2-1.5,3.8-2.3,3.7
		c-7-0.6-6.5,1.5-6.5,8.4l-4.2,33.9L57,78.2c-4.2,4.3-11.6,8.9-11,15.5c0.9,10.5,6,20.8,16.4,21.9l21.7,9.2
		C109.6,116.3,128,92.3,128,64z"/>
</g>
<path fill="#FFFFFF" d="M76.5,75.9V23.2c0-6-4.9-11.6-10.8-12.1c-7-0.6-13,4.9-13,11.8v53c-6.4,4.2-10.4,11.7-9.7,20.1
	c0.9,10.5,9.5,18.9,20,19.7c12.7,0.9,23.2-9.1,23.2-21.6C86.3,86.4,82.4,79.7,76.5,75.9z M63.7,108.8c-7.5-0.5-13.6-6.7-13.9-14.2
	c-0.3-6.9,4.1-12.8,10.3-14.8V38.6h9.2v41.2c6,1.9,10.3,7.5,10.3,14.2C79.6,102.5,72.4,109.4,63.7,108.8z"/>
</svg>
